# Wavefront OBJ file automatically generated by Tiled2Unity

# Vertices (Count = 36)
v 0 -128 0
v -128 -128 0
v -128 0 0
v 0 0 0
v -256 -128 0
v -256 0 0
v -384 -128 0
v -384 0 0
v -512 -128 0
v -512 0 0
v -640 -128 0
v -640 0 0
v 0 -256 0
v -128 -256 0
v -256 -256 0
v -384 -256 0
v -512 -256 0
v -640 -256 0
v 0 -384 0
v -128 -384 0
v -256 -384 0
v -384 -384 0
v -512 -384 0
v -640 -384 0
v 0 -512 0
v -128 -512 0
v -256 -512 0
v -384 -512 0
v -512 -512 0
v -640 -512 0
v 0 -640 0
v -128 -640 0
v -256 -640 0
v -384 -640 0
v -512 -640 0
v -640 -640 0

# Texture cooridinates (Count = 8)
vt 0.2501221 0.8751221
vt 0.4998779 0.8751221
vt 0.4998779 0.9998779
vt 0.2501221 0.9998779
vt 0.5001221 0.8751221
vt 0.7498779 0.8751221
vt 0.7498779 0.9998779
vt 0.5001221 0.9998779

# Normal
vn 0 0 -1

# Groups (Count = 2)

g mesh_0001
f 1/1/1 2/2/1 3/3/1 4/4/1
f 2/1/1 5/2/1 6/3/1 3/4/1
f 5/1/1 7/2/1 8/3/1 6/4/1
f 7/1/1 9/2/1 10/3/1 8/4/1
f 9/1/1 11/2/1 12/3/1 10/4/1
f 13/1/1 14/2/1 2/3/1 1/4/1
f 14/1/1 15/2/1 5/3/1 2/4/1
f 15/1/1 16/2/1 7/3/1 5/4/1
f 16/1/1 17/2/1 9/3/1 7/4/1
f 17/1/1 18/2/1 11/3/1 9/4/1
f 19/1/1 20/2/1 14/3/1 13/4/1
f 20/1/1 21/2/1 15/3/1 14/4/1
f 21/1/1 22/2/1 16/3/1 15/4/1
f 22/1/1 23/2/1 17/3/1 16/4/1
f 23/1/1 24/2/1 18/3/1 17/4/1
f 25/1/1 26/2/1 20/3/1 19/4/1
f 26/1/1 27/2/1 21/3/1 20/4/1
f 27/1/1 28/2/1 22/3/1 21/4/1
f 28/1/1 29/2/1 23/3/1 22/4/1
f 29/1/1 30/2/1 24/3/1 23/4/1
f 31/1/1 32/2/1 26/3/1 25/4/1
f 32/1/1 33/2/1 27/3/1 26/4/1
f 33/1/1 34/2/1 28/3/1 27/4/1
f 34/1/1 35/2/1 29/3/1 28/4/1
f 35/1/1 36/2/1 30/3/1 29/4/1

g mesh_0002
f 1/5/1 2/6/1 3/7/1 4/8/1
f 2/5/1 5/6/1 6/7/1 3/8/1
f 5/5/1 7/6/1 8/7/1 6/8/1
f 7/5/1 9/6/1 10/7/1 8/8/1
f 9/5/1 11/6/1 12/7/1 10/8/1
f 13/5/1 14/6/1 2/7/1 1/8/1
f 17/5/1 18/6/1 11/7/1 9/8/1
f 19/5/1 20/6/1 14/7/1 13/8/1
f 23/5/1 24/6/1 18/7/1 17/8/1
f 25/5/1 26/6/1 20/7/1 19/8/1
f 29/5/1 30/6/1 24/7/1 23/8/1
f 31/5/1 32/6/1 26/7/1 25/8/1
f 32/5/1 33/6/1 27/7/1 26/8/1
f 33/5/1 34/6/1 28/7/1 27/8/1
f 34/5/1 35/6/1 29/7/1 28/8/1
f 35/5/1 36/6/1 30/7/1 29/8/1

