# Wavefront OBJ file automatically generated by Tiled2Unity

# Vertices (Count = 12)
v 0 -128 0
v -128 -128 0
v -128 0 0
v 0 0 0
v 0 -256 0
v -128 -256 0
v 0 -384 0
v -128 -384 0
v 0 -512 0
v -128 -512 0
v 0 -640 0
v -128 -640 0

# Texture cooridinates (Count = 4)
vt 0.2501221 0.8751221
vt 0.4998779 0.8751221
vt 0.4998779 0.9998779
vt 0.2501221 0.9998779

# Normal
vn 0 0 -1

# Groups (Count = 2)

g mesh_0001
f 1/1/1 2/2/1 3/3/1 4/4/1
f 5/1/1 6/2/1 2/3/1 1/4/1
f 7/1/1 8/2/1 6/3/1 5/4/1
f 9/1/1 10/2/1 8/3/1 7/4/1
f 11/1/1 12/2/1 10/3/1 9/4/1

