# Wavefront OBJ file automatically generated by Tiled2Unity

# Vertices (Count = 360)
v -128 -256 0
v -256 -256 0
v -256 -128 0
v -128 -128 0
v -384 -256 0
v -384 -128 0
v -512 -256 0
v -512 -128 0
v -640 -256 0
v -640 -128 0
v -768 -256 0
v -768 -128 0
v -896 -256 0
v -896 -128 0
v -1024 -256 0
v -1024 -128 0
v -1152 -256 0
v -1152 -128 0
v -1280 -256 0
v -1280 -128 0
v -1408 -256 0
v -1408 -128 0
v -1536 -256 0
v -1536 -128 0
v -1664 -256 0
v -1664 -128 0
v -128 -384 0
v -256 -384 0
v -384 -384 0
v -512 -384 0
v -640 -384 0
v -768 -384 0
v -896 -384 0
v -1024 -384 0
v -1152 -384 0
v -1280 -384 0
v -1408 -384 0
v -1536 -384 0
v -1664 -384 0
v -2944 -384 0
v -3072 -384 0
v -3072 -256 0
v -2944 -256 0
v -3200 -384 0
v -3200 -256 0
v -3328 -384 0
v -3328 -256 0
v -3456 -384 0
v -3456 -256 0
v -3584 -384 0
v -3584 -256 0
v -3712 -384 0
v -3712 -256 0
v -3840 -384 0
v -3840 -256 0
v -128 -512 0
v -256 -512 0
v -384 -512 0
v -512 -512 0
v -640 -512 0
v -768 -512 0
v -896 -512 0
v -1024 -512 0
v -1152 -512 0
v -1280 -512 0
v -1408 -512 0
v -1536 -512 0
v -1664 -512 0
v -2944 -512 0
v -3072 -512 0
v -3200 -512 0
v -3328 -512 0
v -3712 -512 0
v -3840 -512 0
v -128 -640 0
v -256 -640 0
v -384 -640 0
v -512 -640 0
v -640 -640 0
v -768 -640 0
v -896 -640 0
v -1024 -640 0
v -1152 -640 0
v -1280 -640 0
v -1408 -640 0
v -1536 -640 0
v -1664 -640 0
v -3072 -640 0
v -3200 -640 0
v -3712 -640 0
v -3840 -640 0
v -128 -768 0
v -256 -768 0
v -384 -768 0
v -512 -768 0
v -640 -768 0
v -768 -768 0
v -896 -768 0
v -1024 -768 0
v -1152 -768 0
v -1280 -768 0
v -1408 -768 0
v -1536 -768 0
v -1664 -768 0
v -3072 -768 0
v -3200 -768 0
v -3712 -768 0
v -3840 -768 0
v -256 -896 0
v -384 -896 0
v -512 -896 0
v -640 -896 0
v -768 -896 0
v -896 -896 0
v -1024 -896 0
v -1152 -896 0
v -1280 -896 0
v -1408 -896 0
v -1536 -896 0
v -1664 -896 0
v -3072 -896 0
v -3200 -896 0
v -3712 -896 0
v -3840 -896 0
v -256 -1024 0
v -384 -1024 0
v -512 -1024 0
v -640 -1024 0
v -768 -1024 0
v -896 -1024 0
v -1024 -1024 0
v -1152 -1024 0
v -1280 -1024 0
v -1408 -1024 0
v -1536 -1024 0
v -2304 -1024 0
v -2432 -1024 0
v -2432 -896 0
v -2304 -896 0
v -2560 -1024 0
v -2560 -896 0
v -2688 -1024 0
v -2688 -896 0
v -2816 -1024 0
v -2816 -896 0
v -2944 -1024 0
v -2944 -896 0
v -3072 -1024 0
v -3200 -1024 0
v -3712 -1024 0
v -3840 -1024 0
v -128 -1152 0
v -256 -1152 0
v -128 -1024 0
v -384 -1152 0
v -512 -1152 0
v -640 -1152 0
v -768 -1152 0
v -896 -1152 0
v -1024 -1152 0
v -1152 -1152 0
v -1280 -1152 0
v -1408 -1152 0
v -1536 -1152 0
v -1664 -1152 0
v -1664 -1024 0
v -2304 -1152 0
v -2432 -1152 0
v -2560 -1152 0
v -2688 -1152 0
v -3712 -1152 0
v -3840 -1152 0
v -128 -1280 0
v -256 -1280 0
v -384 -1280 0
v -512 -1280 0
v -640 -1280 0
v -768 -1280 0
v -896 -1280 0
v -1024 -1280 0
v -1152 -1280 0
v -1280 -1280 0
v -1408 -1280 0
v -1536 -1280 0
v -1664 -1280 0
v -2304 -1280 0
v -2432 -1280 0
v -2560 -1280 0
v -2688 -1280 0
v -3712 -1280 0
v -3840 -1280 0
v -128 -1408 0
v -256 -1408 0
v -384 -1408 0
v -512 -1408 0
v -640 -1408 0
v -768 -1408 0
v -896 -1408 0
v -1024 -1408 0
v -1152 -1408 0
v -1280 -1408 0
v -1408 -1408 0
v -1536 -1408 0
v -1664 -1408 0
v -2304 -1408 0
v -2432 -1408 0
v -2560 -1408 0
v -2688 -1408 0
v -3584 -1408 0
v -3712 -1408 0
v -3584 -1280 0
v -3840 -1408 0
v -3968 -1408 0
v -3968 -1280 0
v -128 -1536 0
v -256 -1536 0
v -384 -1536 0
v -512 -1536 0
v -640 -1536 0
v -768 -1536 0
v -896 -1536 0
v -1024 -1536 0
v -1152 -1536 0
v -1280 -1536 0
v -1408 -1536 0
v -1536 -1536 0
v -1664 -1536 0
v -1792 -1536 0
v -1792 -1408 0
v -1920 -1536 0
v -1920 -1408 0
v -2048 -1536 0
v -2048 -1408 0
v -2176 -1536 0
v -2176 -1408 0
v -2304 -1536 0
v -2432 -1536 0
v -2560 -1536 0
v -2688 -1536 0
v -3584 -1536 0
v -3712 -1536 0
v -3840 -1536 0
v -3968 -1536 0
v -128 -1664 0
v -256 -1664 0
v -384 -1664 0
v -512 -1664 0
v -640 -1664 0
v -768 -1664 0
v -896 -1664 0
v -1024 -1664 0
v -1152 -1664 0
v -1280 -1664 0
v -1408 -1664 0
v -1536 -1664 0
v -1664 -1664 0
v -1920 -1664 0
v -2048 -1664 0
v -1920 -1792 0
v -2048 -1792 0
v -128 -1920 0
v -256 -1920 0
v -256 -1792 0
v -128 -1792 0
v -384 -1920 0
v -384 -1792 0
v -512 -1920 0
v -512 -1792 0
v -640 -1920 0
v -640 -1792 0
v -768 -1920 0
v -768 -1792 0
v -896 -1920 0
v -896 -1792 0
v -1024 -1920 0
v -1024 -1792 0
v -1152 -1920 0
v -1152 -1792 0
v -1280 -1920 0
v -1280 -1792 0
v -1408 -1920 0
v -1408 -1792 0
v -1536 -1920 0
v -1536 -1792 0
v -1664 -1920 0
v -1664 -1792 0
v -1920 -1920 0
v -2048 -1920 0
v -128 -2048 0
v -256 -2048 0
v -384 -2048 0
v -512 -2048 0
v -640 -2048 0
v -768 -2048 0
v -896 -2048 0
v -1024 -2048 0
v -1152 -2048 0
v -1280 -2048 0
v -1408 -2048 0
v -1536 -2048 0
v -1664 -2048 0
v -1792 -2048 0
v -1792 -1920 0
v -1920 -2048 0
v -2048 -2048 0
v -128 -2176 0
v -256 -2176 0
v -384 -2176 0
v -512 -2176 0
v -640 -2176 0
v -768 -2176 0
v -896 -2176 0
v -1024 -2176 0
v -1152 -2176 0
v -1280 -2176 0
v -1408 -2176 0
v -1536 -2176 0
v -1664 -2176 0
v -128 -2304 0
v -256 -2304 0
v -384 -2304 0
v -512 -2304 0
v -640 -2304 0
v -768 -2304 0
v -896 -2304 0
v -1024 -2304 0
v -1152 -2304 0
v -1280 -2304 0
v -1408 -2304 0
v -1536 -2304 0
v -256 -2432 0
v -384 -2432 0
v -512 -2432 0
v -640 -2432 0
v -768 -2432 0
v -896 -2432 0
v -1024 -2432 0
v -1152 -2432 0
v -1280 -2432 0
v -1408 -2432 0
v -384 -2560 0
v -512 -2560 0
v -640 -2560 0
v -768 -2560 0
v -896 -2560 0
v -1024 -2560 0
v -1152 -2560 0
v -1280 -2560 0
v -512 -2688 0
v -640 -2688 0
v -768 -2688 0
v -896 -2688 0
v -1024 -2688 0
v -1152 -2688 0
v -3712 -3200 0
v -3840 -3200 0
v -3840 -3072 0
v -3712 -3072 0
v -1792 -1664 0
v -1792 -1792 0

# Texture Coorindates (Count = 32)
vt 0.2501221 0.8751221
vt 0.4998779 0.8751221
vt 0.4998779 0.9998779
vt 0.2501221 0.9998779
vt 0.5001221 0.8751221
vt 0.7498779 0.8751221
vt 0.7498779 0.9998779
vt 0.5001221 0.9998779
vt 0.0001220703 0.6251221
vt 0.2498779 0.6251221
vt 0.2498779 0.7498779
vt 0.0001220703 0.7498779
vt 0.7501221 0.7501221
vt 0.9998779 0.7501221
vt 0.9998779 0.8748779
vt 0.7501221 0.8748779
vt 0.7501221 0.8751221
vt 0.7498779 0.7501221
vt 0.9998779 0.7498779
vt 1.000122 0.8748779
vt 0.4998779 0.7501221
vt 0.2501221 0.8748779
vt 0.2501221 0.7501221
vt 0.4998779 0.8748779
vt 0.5001221 0.7501221
vt 0.7498779 0.8748779
vt 0.5001221 0.8748779
vt 0.2498779 0.7501221
vt 0.4998779 0.7498779
vt 0.2501221 0.6251221
vt 0.4998779 0.6251221
vt 0.2501221 0.7498779

# Normal
vn 0 0 -1

# Groups (Count = 2)
g mesh_[00]_[00]
f  1/1/1  2/2/1  3/3/1  4/4/1 
f  2/1/1  5/2/1  6/3/1  3/4/1 
f  5/1/1  7/2/1  8/3/1  6/4/1 
f  7/1/1  9/2/1  10/3/1  8/4/1 
f  9/1/1  11/2/1  12/3/1  10/4/1 
f  11/1/1  13/2/1  14/3/1  12/4/1 
f  13/1/1  15/2/1  16/3/1  14/4/1 
f  15/1/1  17/2/1  18/3/1  16/4/1 
f  17/1/1  19/2/1  20/3/1  18/4/1 
f  19/1/1  21/2/1  22/3/1  20/4/1 
f  21/1/1  23/2/1  24/3/1  22/4/1 
f  23/1/1  25/2/1  26/3/1  24/4/1 
f  27/1/1  28/2/1  2/3/1  1/4/1 
f  28/1/1  29/2/1  5/3/1  2/4/1 
f  29/1/1  30/2/1  7/3/1  5/4/1 
f  30/1/1  31/2/1  9/3/1  7/4/1 
f  31/1/1  32/2/1  11/3/1  9/4/1 
f  32/1/1  33/2/1  13/3/1  11/4/1 
f  33/1/1  34/2/1  15/3/1  13/4/1 
f  34/1/1  35/2/1  17/3/1  15/4/1 
f  35/1/1  36/2/1  19/3/1  17/4/1 
f  36/1/1  37/2/1  21/3/1  19/4/1 
f  37/1/1  38/2/1  23/3/1  21/4/1 
f  38/1/1  39/2/1  25/3/1  23/4/1 
f  40/1/1  41/2/1  42/3/1  43/4/1 
f  41/1/1  44/2/1  45/3/1  42/4/1 
f  44/1/1  46/2/1  47/3/1  45/4/1 
f  46/1/1  48/2/1  49/3/1  47/4/1 
f  48/1/1  50/2/1  51/3/1  49/4/1 
f  50/1/1  52/2/1  53/3/1  51/4/1 
f  52/1/1  54/2/1  55/3/1  53/4/1 
f  56/1/1  57/2/1  28/3/1  27/4/1 
f  57/1/1  58/2/1  29/3/1  28/4/1 
f  58/1/1  59/2/1  30/3/1  29/4/1 
f  59/1/1  60/2/1  31/3/1  30/4/1 
f  60/1/1  61/2/1  32/3/1  31/4/1 
f  61/1/1  62/2/1  33/3/1  32/4/1 
f  62/1/1  63/2/1  34/3/1  33/4/1 
f  63/1/1  64/2/1  35/3/1  34/4/1 
f  64/1/1  65/2/1  36/3/1  35/4/1 
f  65/1/1  66/2/1  37/3/1  36/4/1 
f  66/1/1  67/2/1  38/3/1  37/4/1 
f  67/1/1  68/2/1  39/3/1  38/4/1 
f  69/1/1  70/2/1  41/3/1  40/4/1 
f  70/1/1  71/2/1  44/3/1  41/4/1 
f  71/1/1  72/2/1  46/3/1  44/4/1 
f  73/1/1  74/2/1  54/3/1  52/4/1 
f  75/1/1  76/2/1  57/3/1  56/4/1 
f  76/1/1  77/2/1  58/3/1  57/4/1 
f  77/1/1  78/2/1  59/3/1  58/4/1 
f  78/1/1  79/2/1  60/3/1  59/4/1 
f  79/1/1  80/2/1  61/3/1  60/4/1 
f  80/1/1  81/2/1  62/3/1  61/4/1 
f  81/1/1  82/2/1  63/3/1  62/4/1 
f  82/1/1  83/2/1  64/3/1  63/4/1 
f  83/1/1  84/2/1  65/3/1  64/4/1 
f  84/1/1  85/2/1  66/3/1  65/4/1 
f  85/1/1  86/2/1  67/3/1  66/4/1 
f  86/1/1  87/2/1  68/3/1  67/4/1 
f  88/1/1  89/2/1  71/3/1  70/4/1 
f  90/1/1  91/2/1  74/3/1  73/4/1 
f  92/1/1  93/2/1  76/3/1  75/4/1 
f  93/1/1  94/2/1  77/3/1  76/4/1 
f  94/1/1  95/2/1  78/3/1  77/4/1 
f  95/1/1  96/2/1  79/3/1  78/4/1 
f  96/1/1  97/2/1  80/3/1  79/4/1 
f  97/1/1  98/2/1  81/3/1  80/4/1 
f  98/1/1  99/2/1  82/3/1  81/4/1 
f  99/1/1  100/2/1  83/3/1  82/4/1 
f  100/1/1  101/2/1  84/3/1  83/4/1 
f  101/1/1  102/2/1  85/3/1  84/4/1 
f  102/1/1  103/2/1  86/3/1  85/4/1 
f  103/1/1  104/2/1  87/3/1  86/4/1 
f  105/1/1  106/2/1  89/3/1  88/4/1 
f  107/1/1  108/2/1  91/3/1  90/4/1 
f  109/1/1  110/2/1  94/3/1  93/4/1 
f  110/1/1  111/2/1  95/3/1  94/4/1 
f  111/1/1  112/2/1  96/3/1  95/4/1 
f  112/1/1  113/2/1  97/3/1  96/4/1 
f  113/1/1  114/2/1  98/3/1  97/4/1 
f  114/1/1  115/2/1  99/3/1  98/4/1 
f  115/1/1  116/2/1  100/3/1  99/4/1 
f  116/1/1  117/2/1  101/3/1  100/4/1 
f  117/1/1  118/2/1  102/3/1  101/4/1 
f  118/1/1  119/2/1  103/3/1  102/4/1 
f  119/1/1  120/2/1  104/3/1  103/4/1 
f  121/1/1  122/2/1  106/3/1  105/4/1 
f  123/1/1  124/2/1  108/3/1  107/4/1 
f  125/1/1  126/2/1  110/3/1  109/4/1 
f  126/1/1  127/2/1  111/3/1  110/4/1 
f  127/1/1  128/2/1  112/3/1  111/4/1 
f  128/1/1  129/2/1  113/3/1  112/4/1 
f  129/1/1  130/2/1  114/3/1  113/4/1 
f  130/1/1  131/2/1  115/3/1  114/4/1 
f  131/1/1  132/2/1  116/3/1  115/4/1 
f  132/1/1  133/2/1  117/3/1  116/4/1 
f  133/1/1  134/2/1  118/3/1  117/4/1 
f  134/1/1  135/2/1  119/3/1  118/4/1 
f  136/1/1  137/2/1  138/3/1  139/4/1 
f  137/1/1  140/2/1  141/3/1  138/4/1 
f  140/1/1  142/2/1  143/3/1  141/4/1 
f  142/1/1  144/2/1  145/3/1  143/4/1 
f  144/1/1  146/2/1  147/3/1  145/4/1 
f  146/1/1  148/2/1  121/3/1  147/4/1 
f  148/1/1  149/2/1  122/3/1  121/4/1 
f  150/1/1  151/2/1  124/3/1  123/4/1 
f  152/1/1  153/2/1  125/3/1  154/4/1 
f  153/1/1  155/2/1  126/3/1  125/4/1 
f  155/1/1  156/2/1  127/3/1  126/4/1 
f  156/1/1  157/2/1  128/3/1  127/4/1 
f  157/1/1  158/2/1  129/3/1  128/4/1 
f  158/1/1  159/2/1  130/3/1  129/4/1 
f  159/1/1  160/2/1  131/3/1  130/4/1 
f  160/1/1  161/2/1  132/3/1  131/4/1 
f  161/1/1  162/2/1  133/3/1  132/4/1 
f  162/1/1  163/2/1  134/3/1  133/4/1 
f  163/1/1  164/2/1  135/3/1  134/4/1 
f  164/1/1  165/2/1  166/3/1  135/4/1 
f  167/1/1  168/2/1  137/3/1  136/4/1 
f  168/1/1  169/2/1  140/3/1  137/4/1 
f  169/1/1  170/2/1  142/3/1  140/4/1 
f  171/1/1  172/2/1  151/3/1  150/4/1 
f  173/1/1  174/2/1  153/3/1  152/4/1 
f  174/1/1  175/2/1  155/3/1  153/4/1 
f  175/1/1  176/2/1  156/3/1  155/4/1 
f  176/1/1  177/2/1  157/3/1  156/4/1 
f  177/1/1  178/2/1  158/3/1  157/4/1 
f  178/1/1  179/2/1  159/3/1  158/4/1 
f  179/1/1  180/2/1  160/3/1  159/4/1 
f  180/1/1  181/2/1  161/3/1  160/4/1 
f  181/1/1  182/2/1  162/3/1  161/4/1 
f  182/1/1  183/2/1  163/3/1  162/4/1 
f  183/1/1  184/2/1  164/3/1  163/4/1 
f  184/1/1  185/2/1  165/3/1  164/4/1 
f  186/1/1  187/2/1  168/3/1  167/4/1 
f  187/1/1  188/2/1  169/3/1  168/4/1 
f  188/1/1  189/2/1  170/3/1  169/4/1 
f  190/1/1  191/2/1  172/3/1  171/4/1 
f  192/1/1  193/2/1  174/3/1  173/4/1 
f  193/1/1  194/2/1  175/3/1  174/4/1 
f  194/1/1  195/2/1  176/3/1  175/4/1 
f  195/1/1  196/2/1  177/3/1  176/4/1 
f  196/1/1  197/2/1  178/3/1  177/4/1 
f  197/1/1  198/2/1  179/3/1  178/4/1 
f  198/1/1  199/2/1  180/3/1  179/4/1 
f  199/1/1  200/2/1  181/3/1  180/4/1 
f  200/1/1  201/2/1  182/3/1  181/4/1 
f  201/1/1  202/2/1  183/3/1  182/4/1 
f  202/1/1  203/2/1  184/3/1  183/4/1 
f  203/1/1  204/2/1  185/3/1  184/4/1 
f  205/1/1  206/2/1  187/3/1  186/4/1 
f  206/1/1  207/2/1  188/3/1  187/4/1 
f  207/1/1  208/2/1  189/3/1  188/4/1 
f  209/1/1  210/2/1  190/3/1  211/4/1 
f  210/1/1  212/2/1  191/3/1  190/4/1 
f  212/1/1  213/2/1  214/3/1  191/4/1 
f  215/1/1  216/2/1  193/3/1  192/4/1 
f  216/1/1  217/2/1  194/3/1  193/4/1 
f  217/1/1  218/2/1  195/3/1  194/4/1 
f  218/1/1  219/2/1  196/3/1  195/4/1 
f  219/1/1  220/2/1  197/3/1  196/4/1 
f  220/1/1  221/2/1  198/3/1  197/4/1 
f  221/1/1  222/2/1  199/3/1  198/4/1 
f  222/1/1  223/2/1  200/3/1  199/4/1 
f  223/1/1  224/2/1  201/3/1  200/4/1 
f  224/1/1  225/2/1  202/3/1  201/4/1 
f  225/1/1  226/2/1  203/3/1  202/4/1 
f  226/1/1  227/2/1  204/3/1  203/4/1 
f  227/1/1  228/2/1  229/3/1  204/4/1 
f  228/1/1  230/2/1  231/3/1  229/4/1 
f  230/1/1  232/2/1  233/3/1  231/4/1 
f  232/1/1  234/2/1  235/3/1  233/4/1 
f  234/1/1  236/2/1  205/3/1  235/4/1 
f  236/1/1  237/2/1  206/3/1  205/4/1 
f  237/1/1  238/2/1  207/3/1  206/4/1 
f  238/1/1  239/2/1  208/3/1  207/4/1 
f  240/1/1  241/2/1  210/3/1  209/4/1 
f  241/1/1  242/2/1  212/3/1  210/4/1 
f  242/1/1  243/2/1  213/3/1  212/4/1 
f  244/1/1  245/2/1  216/3/1  215/4/1 
f  245/1/1  246/2/1  217/3/1  216/4/1 
f  246/1/1  247/2/1  218/3/1  217/4/1 
f  247/1/1  248/2/1  219/3/1  218/4/1 
f  248/1/1  249/2/1  220/3/1  219/4/1 
f  249/1/1  250/2/1  221/3/1  220/4/1 
f  250/1/1  251/2/1  222/3/1  221/4/1 
f  251/1/1  252/2/1  223/3/1  222/4/1 
f  252/1/1  253/2/1  224/3/1  223/4/1 
f  253/1/1  254/2/1  225/3/1  224/4/1 
f  254/1/1  255/2/1  226/3/1  225/4/1 
f  255/1/1  256/2/1  227/3/1  226/4/1 
f  257/1/1  258/2/1  232/3/1  230/4/1 
f  259/1/1  260/2/1  258/3/1  257/4/1 
f  261/1/1  262/2/1  263/3/1  264/4/1 
f  262/1/1  265/2/1  266/3/1  263/4/1 
f  265/1/1  267/2/1  268/3/1  266/4/1 
f  267/1/1  269/2/1  270/3/1  268/4/1 
f  269/1/1  271/2/1  272/3/1  270/4/1 
f  271/1/1  273/2/1  274/3/1  272/4/1 
f  273/1/1  275/2/1  276/3/1  274/4/1 
f  275/1/1  277/2/1  278/3/1  276/4/1 
f  277/1/1  279/2/1  280/3/1  278/4/1 
f  279/1/1  281/2/1  282/3/1  280/4/1 
f  281/1/1  283/2/1  284/3/1  282/4/1 
f  283/1/1  285/2/1  286/3/1  284/4/1 
f  287/1/1  288/2/1  260/3/1  259/4/1 
f  289/1/1  290/2/1  262/3/1  261/4/1 
f  290/1/1  291/2/1  265/3/1  262/4/1 
f  291/1/1  292/2/1  267/3/1  265/4/1 
f  292/1/1  293/2/1  269/3/1  267/4/1 
f  293/1/1  294/2/1  271/3/1  269/4/1 
f  294/1/1  295/2/1  273/3/1  271/4/1 
f  295/1/1  296/2/1  275/3/1  273/4/1 
f  296/1/1  297/2/1  277/3/1  275/4/1 
f  297/1/1  298/2/1  279/3/1  277/4/1 
f  298/1/1  299/2/1  281/3/1  279/4/1 
f  299/1/1  300/2/1  283/3/1  281/4/1 
f  300/1/1  301/2/1  285/3/1  283/4/1 
f  301/1/1  302/2/1  303/3/1  285/4/1 
f  302/1/1  304/2/1  287/3/1  303/4/1 
f  304/1/1  305/2/1  288/3/1  287/4/1 
f  306/1/1  307/2/1  290/3/1  289/4/1 
f  307/1/1  308/2/1  291/3/1  290/4/1 
f  308/1/1  309/2/1  292/3/1  291/4/1 
f  309/1/1  310/2/1  293/3/1  292/4/1 
f  310/1/1  311/2/1  294/3/1  293/4/1 
f  311/1/1  312/2/1  295/3/1  294/4/1 
f  312/1/1  313/2/1  296/3/1  295/4/1 
f  313/1/1  314/2/1  297/3/1  296/4/1 
f  314/1/1  315/2/1  298/3/1  297/4/1 
f  315/1/1  316/2/1  299/3/1  298/4/1 
f  316/1/1  317/2/1  300/3/1  299/4/1 
f  317/1/1  318/2/1  301/3/1  300/4/1 
f  319/1/1  320/2/1  307/3/1  306/4/1 
f  320/1/1  321/2/1  308/3/1  307/4/1 
f  321/1/1  322/2/1  309/3/1  308/4/1 
f  322/1/1  323/2/1  310/3/1  309/4/1 
f  323/1/1  324/2/1  311/3/1  310/4/1 
f  324/1/1  325/2/1  312/3/1  311/4/1 
f  325/1/1  326/2/1  313/3/1  312/4/1 
f  326/1/1  327/2/1  314/3/1  313/4/1 
f  327/1/1  328/2/1  315/3/1  314/4/1 
f  328/1/1  329/2/1  316/3/1  315/4/1 
f  329/1/1  330/2/1  317/3/1  316/4/1 
f  331/1/1  332/2/1  321/3/1  320/4/1 
f  332/1/1  333/2/1  322/3/1  321/4/1 
f  333/1/1  334/2/1  323/3/1  322/4/1 
f  334/1/1  335/2/1  324/3/1  323/4/1 
f  335/1/1  336/2/1  325/3/1  324/4/1 
f  336/1/1  337/2/1  326/3/1  325/4/1 
f  337/1/1  338/2/1  327/3/1  326/4/1 
f  338/1/1  339/2/1  328/3/1  327/4/1 
f  339/1/1  340/2/1  329/3/1  328/4/1 
f  341/1/1  342/2/1  333/3/1  332/4/1 
f  342/1/1  343/2/1  334/3/1  333/4/1 
f  343/1/1  344/2/1  335/3/1  334/4/1 
f  344/1/1  345/2/1  336/3/1  335/4/1 
f  345/1/1  346/2/1  337/3/1  336/4/1 
f  346/1/1  347/2/1  338/3/1  337/4/1 
f  347/1/1  348/2/1  339/3/1  338/4/1 
f  349/1/1  350/2/1  343/3/1  342/4/1 
f  350/1/1  351/2/1  344/3/1  343/4/1 
f  351/1/1  352/2/1  345/3/1  344/4/1 
f  352/1/1  353/2/1  346/3/1  345/4/1 
f  353/1/1  354/2/1  347/3/1  346/4/1 
f  355/5/1  356/6/1  357/7/1  358/8/1 
g mesh_[01]_[00]
f  1/9/1  2/10/1  3/11/1  4/12/1 
f  2/13/1  5/14/1  6/15/1  3/16/1 
f  5/13/1  7/14/1  8/15/1  6/16/1 
f  7/13/1  9/14/1  10/15/1  8/16/1 
f  9/13/1  11/14/1  12/15/1  10/16/1 
f  11/13/1  13/14/1  14/15/1  12/16/1 
f  13/13/1  15/14/1  16/15/1  14/16/1 
f  15/13/1  17/14/1  18/15/1  16/16/1 
f  17/13/1  19/14/1  20/15/1  18/16/1 
f  19/13/1  21/14/1  22/15/1  20/16/1 
f  21/13/1  23/14/1  24/15/1  22/16/1 
f  23/13/1  25/14/1  26/15/1  24/16/1 
f  27/17/1  28/18/1  2/19/1  1/20/1 
f  40/9/1  41/10/1  42/11/1  43/12/1 
f  41/13/1  44/14/1  45/15/1  42/16/1 
f  44/13/1  46/14/1  47/15/1  45/16/1 
f  46/13/1  48/14/1  49/15/1  47/16/1 
f  48/13/1  50/14/1  51/15/1  49/16/1 
f  50/13/1  52/14/1  53/15/1  51/16/1 
f  52/13/1  54/14/1  55/15/1  53/16/1 
f  56/17/1  57/18/1  28/19/1  27/20/1 
f  69/17/1  70/18/1  41/19/1  40/20/1 
f  73/5/1  74/21/1  54/11/1  52/22/1 
f  75/17/1  76/18/1  57/19/1  56/20/1 
f  88/5/1  89/21/1  71/11/1  70/22/1 
f  90/17/1  91/18/1  74/19/1  73/20/1 
f  92/17/1  93/18/1  76/19/1  75/20/1 
f  97/5/1  98/21/1  81/11/1  80/22/1 
f  100/5/1  101/21/1  84/11/1  83/22/1 
f  105/17/1  106/18/1  89/19/1  88/20/1 
f  107/17/1  108/18/1  91/19/1  90/20/1 
f  109/5/1  110/21/1  94/11/1  93/22/1 
f  112/23/1  113/21/1  97/24/1  96/22/1 
f  113/25/1  114/18/1  98/26/1  97/27/1 
f  115/23/1  116/21/1  100/24/1  99/22/1 
f  116/25/1  117/18/1  101/26/1  100/27/1 
f  121/17/1  122/18/1  106/19/1  105/20/1 
f  123/17/1  124/18/1  108/19/1  107/20/1 
f  125/1/1  126/28/1  110/29/1  109/27/1 
f  136/9/1  137/10/1  138/11/1  139/12/1 
f  137/13/1  140/14/1  141/15/1  138/16/1 
f  140/13/1  142/14/1  143/15/1  141/16/1 
f  142/13/1  144/14/1  145/15/1  143/16/1 
f  144/13/1  146/14/1  147/15/1  145/16/1 
f  146/13/1  148/14/1  121/15/1  147/16/1 
f  148/25/1  149/18/1  122/26/1  121/27/1 
f  150/17/1  151/18/1  124/19/1  123/20/1 
f  152/17/1  153/18/1  125/19/1  154/20/1 
f  158/5/1  159/21/1  130/11/1  129/22/1 
f  161/5/1  162/21/1  133/11/1  132/22/1 
f  167/17/1  168/18/1  137/19/1  136/20/1 
f  171/17/1  172/18/1  151/19/1  150/20/1 
f  173/17/1  174/18/1  153/19/1  152/20/1 
f  177/23/1  178/21/1  158/24/1  157/22/1 
f  178/25/1  179/18/1  159/26/1  158/27/1 
f  180/23/1  181/21/1  161/24/1  160/22/1 
f  181/25/1  182/18/1  162/26/1  161/27/1 
f  186/17/1  187/18/1  168/19/1  167/20/1 
f  190/17/1  191/18/1  172/19/1  171/20/1 
f  192/17/1  193/18/1  174/19/1  173/20/1 
f  205/17/1  206/18/1  187/19/1  186/20/1 
f  209/9/1  210/10/1  190/11/1  211/12/1 
f  210/25/1  212/18/1  191/26/1  190/27/1 
f  215/17/1  216/18/1  193/19/1  192/20/1 
f  227/23/1  228/21/1  229/24/1  204/22/1 
f  228/13/1  230/14/1  231/15/1  229/16/1 
f  230/13/1  232/14/1  233/15/1  231/16/1 
f  232/13/1  234/14/1  235/15/1  233/16/1 
f  234/13/1  236/14/1  205/15/1  235/16/1 
f  236/25/1  237/18/1  206/26/1  205/27/1 
f  240/17/1  241/18/1  210/19/1  209/20/1 
f  244/17/1  245/18/1  216/19/1  215/20/1 
f  256/9/1  359/10/1  228/11/1  227/12/1 
f  359/30/1  257/31/1  230/29/1  228/32/1 
f  257/5/1  258/21/1  232/11/1  230/22/1 
f  360/30/1  259/31/1  257/29/1  359/32/1 
f  259/17/1  260/18/1  258/19/1  257/20/1 
f  261/9/1  262/10/1  263/11/1  264/12/1 
f  262/13/1  265/14/1  266/15/1  263/16/1 
f  265/13/1  267/14/1  268/15/1  266/16/1 
f  267/13/1  269/14/1  270/15/1  268/16/1 
f  269/13/1  271/14/1  272/15/1  270/16/1 
f  271/13/1  273/14/1  274/15/1  272/16/1 
f  273/13/1  275/14/1  276/15/1  274/16/1 
f  275/13/1  277/14/1  278/15/1  276/16/1 
f  277/13/1  279/14/1  280/15/1  278/16/1 
f  279/13/1  281/14/1  282/15/1  280/16/1 
f  281/13/1  283/14/1  284/15/1  282/16/1 
f  283/13/1  285/14/1  286/15/1  284/16/1 
f  303/30/1  287/31/1  259/29/1  360/32/1 
f  287/17/1  288/18/1  260/19/1  259/20/1 
f  289/17/1  290/18/1  262/19/1  261/20/1 
f  301/23/1  302/21/1  303/24/1  285/22/1 
f  302/13/1  304/14/1  287/15/1  303/16/1 
f  304/25/1  305/18/1  288/26/1  287/27/1 
f  306/17/1  307/18/1  290/19/1  289/20/1 
f  319/17/1  320/18/1  307/19/1  306/20/1 
