# Wavefront OBJ file automatically generated by Tiled2Unity

# Vertices (Count = 255)
v 0 -40 0
v -40 -40 0
v -40 0 0
v 0 0 0
v -80 -40 0
v -80 0 0
v -120 -40 0
v -120 0 0
v -160 -40 0
v -160 0 0
v -200 -40 0
v -200 0 0
v -240 -40 0
v -240 0 0
v -280 -40 0
v -280 0 0
v -320 -40 0
v -320 0 0
v -360 -40 0
v -360 0 0
v -400 -40 0
v -400 0 0
v -440 -40 0
v -440 0 0
v -480 -40 0
v -480 0 0
v -520 -40 0
v -520 0 0
v -560 -40 0
v -560 0 0
v -600 -40 0
v -600 0 0
v -640 -40 0
v -640 0 0
v 0 -80 0
v -40 -80 0
v -80 -80 0
v -120 -80 0
v -160 -80 0
v -200 -80 0
v -240 -80 0
v -280 -80 0
v -320 -80 0
v -360 -80 0
v -400 -80 0
v -440 -80 0
v -480 -80 0
v -520 -80 0
v -560 -80 0
v -600 -80 0
v -640 -80 0
v 0 -120 0
v -40 -120 0
v -80 -120 0
v -120 -120 0
v -160 -120 0
v -200 -120 0
v -240 -120 0
v -280 -120 0
v -320 -120 0
v -360 -120 0
v -400 -120 0
v -440 -120 0
v -480 -120 0
v -520 -120 0
v -560 -120 0
v -600 -120 0
v -640 -120 0
v 0 -160 0
v -40 -160 0
v -80 -160 0
v -120 -160 0
v -160 -160 0
v -200 -160 0
v -240 -160 0
v -280 -160 0
v -320 -160 0
v -360 -160 0
v -400 -160 0
v -440 -160 0
v -480 -160 0
v -520 -160 0
v -560 -160 0
v -600 -160 0
v -640 -160 0
v 0 -200 0
v -40 -200 0
v -80 -200 0
v -120 -200 0
v -160 -200 0
v -200 -200 0
v -240 -200 0
v -280 -200 0
v -320 -200 0
v -360 -200 0
v -400 -200 0
v -440 -200 0
v -480 -200 0
v -520 -200 0
v -560 -200 0
v -600 -200 0
v -640 -200 0
v 0 -240 0
v -40 -240 0
v -80 -240 0
v -120 -240 0
v -160 -240 0
v -200 -240 0
v -240 -240 0
v -280 -240 0
v -320 -240 0
v -360 -240 0
v -400 -240 0
v -440 -240 0
v -480 -240 0
v -520 -240 0
v -560 -240 0
v -600 -240 0
v -640 -240 0
v 0 -280 0
v -40 -280 0
v -80 -280 0
v -120 -280 0
v -160 -280 0
v -200 -280 0
v -240 -280 0
v -280 -280 0
v -320 -280 0
v -360 -280 0
v -400 -280 0
v -440 -280 0
v -480 -280 0
v -520 -280 0
v -560 -280 0
v -600 -280 0
v -640 -280 0
v 0 -320 0
v -40 -320 0
v -80 -320 0
v -120 -320 0
v -160 -320 0
v -200 -320 0
v -240 -320 0
v -280 -320 0
v -320 -320 0
v -360 -320 0
v -400 -320 0
v -440 -320 0
v -480 -320 0
v -520 -320 0
v -560 -320 0
v -600 -320 0
v -640 -320 0
v 0 -360 0
v -40 -360 0
v -80 -360 0
v -120 -360 0
v -160 -360 0
v -200 -360 0
v -240 -360 0
v -280 -360 0
v -320 -360 0
v -360 -360 0
v -400 -360 0
v -440 -360 0
v -480 -360 0
v -520 -360 0
v -560 -360 0
v -600 -360 0
v -640 -360 0
v 0 -400 0
v -40 -400 0
v -80 -400 0
v -120 -400 0
v -160 -400 0
v -200 -400 0
v -240 -400 0
v -280 -400 0
v -320 -400 0
v -360 -400 0
v -400 -400 0
v -440 -400 0
v -480 -400 0
v -520 -400 0
v -560 -400 0
v -600 -400 0
v -640 -400 0
v 0 -440 0
v -40 -440 0
v -80 -440 0
v -120 -440 0
v -160 -440 0
v -200 -440 0
v -240 -440 0
v -280 -440 0
v -320 -440 0
v -360 -440 0
v -400 -440 0
v -440 -440 0
v -480 -440 0
v -520 -440 0
v -560 -440 0
v -600 -440 0
v -640 -440 0
v 0 -480 0
v -40 -480 0
v -80 -480 0
v -120 -480 0
v -160 -480 0
v -200 -480 0
v -240 -480 0
v -280 -480 0
v -320 -480 0
v -360 -480 0
v -400 -480 0
v -440 -480 0
v -480 -480 0
v -520 -480 0
v -560 -480 0
v -600 -480 0
v -640 -480 0
v 0 -520 0
v -40 -520 0
v -80 -520 0
v -120 -520 0
v -160 -520 0
v -200 -520 0
v -240 -520 0
v -280 -520 0
v -320 -520 0
v -360 -520 0
v -400 -520 0
v -440 -520 0
v -480 -520 0
v -520 -520 0
v -560 -520 0
v -600 -520 0
v -640 -520 0
v 0 -560 0
v -40 -560 0
v -80 -560 0
v -120 -560 0
v -160 -560 0
v -200 -560 0
v -240 -560 0
v -280 -560 0
v -320 -560 0
v -360 -560 0
v -400 -560 0
v -440 -560 0
v -480 -560 0
v -520 -560 0
v -560 -560 0
v -600 -560 0
v -640 -560 0

# Texture Coorindates (Count = 23)
vt 0.25 0.5
vt 0.5 0.5
vt 0.5 0.75
vt 0.25 0.75
vt 0.25 0
vt 0.5 0
vt 0.5 0.25
vt 0.25 0.25
vt 0.75 0.25
vt 0.75 0.5
vt 0 0
vt 0 0.25
vt 0.75 0.75
vt 1 0.75
vt 1 1
vt 0.75 1
vt 0 0.5
vt 0 0.75
vt 0.25 1
vt 0 1
vt 0.5 1
vt 1 0.5
vt 1 0.25

# Normal
vn 0 0 -1

# Groups (Count = 1)
g Tile_Layer_1_00+tiled
f  1/1/1  2/2/1  3/3/1  4/4/1 
f  2/1/1  5/2/1  6/3/1  3/4/1 
f  5/1/1  7/2/1  8/3/1  6/4/1 
f  7/1/1  9/2/1  10/3/1  8/4/1 
f  9/1/1  11/2/1  12/3/1  10/4/1 
f  11/1/1  13/2/1  14/3/1  12/4/1 
f  13/1/1  15/2/1  16/3/1  14/4/1 
f  15/1/1  17/2/1  18/3/1  16/4/1 
f  17/1/1  19/2/1  20/3/1  18/4/1 
f  19/1/1  21/2/1  22/3/1  20/4/1 
f  21/1/1  23/2/1  24/3/1  22/4/1 
f  23/1/1  25/2/1  26/3/1  24/4/1 
f  25/1/1  27/2/1  28/3/1  26/4/1 
f  27/1/1  29/2/1  30/3/1  28/4/1 
f  29/1/1  31/2/1  32/3/1  30/4/1 
f  31/1/1  33/2/1  34/3/1  32/4/1 
f  35/1/1  36/2/1  2/3/1  1/4/1 
f  36/5/1  37/6/1  5/7/1  2/8/1 
f  37/7/1  38/9/1  7/10/1  5/2/1 
f  38/7/1  39/9/1  9/10/1  7/2/1 
f  39/7/1  40/9/1  11/10/1  9/2/1 
f  40/7/1  41/9/1  13/10/1  11/2/1 
f  41/7/1  42/9/1  15/10/1  13/2/1 
f  42/7/1  43/9/1  17/10/1  15/2/1 
f  43/7/1  44/9/1  19/10/1  17/2/1 
f  44/7/1  45/9/1  21/10/1  19/2/1 
f  45/7/1  46/9/1  23/10/1  21/2/1 
f  46/7/1  47/9/1  25/10/1  23/2/1 
f  47/7/1  48/9/1  27/10/1  25/2/1 
f  48/7/1  49/9/1  29/10/1  27/2/1 
f  49/11/1  50/5/1  31/8/1  29/12/1 
f  50/1/1  51/2/1  33/3/1  31/4/1 
f  52/1/1  53/2/1  36/3/1  35/4/1 
f  53/2/1  54/10/1  37/13/1  36/3/1 
f  54/13/1  55/14/1  38/15/1  37/16/1 
f  55/13/1  56/14/1  39/15/1  38/16/1 
f  56/13/1  57/14/1  40/15/1  39/16/1 
f  57/13/1  58/14/1  41/15/1  40/16/1 
f  58/13/1  59/14/1  42/15/1  41/16/1 
f  59/13/1  60/14/1  43/15/1  42/16/1 
f  60/13/1  61/14/1  44/15/1  43/16/1 
f  61/13/1  62/14/1  45/15/1  44/16/1 
f  62/13/1  63/14/1  46/15/1  45/16/1 
f  63/13/1  64/14/1  47/15/1  46/16/1 
f  64/13/1  65/14/1  48/15/1  47/16/1 
f  65/13/1  66/14/1  49/15/1  48/16/1 
f  66/17/1  67/1/1  50/4/1  49/18/1 
f  67/1/1  68/2/1  51/3/1  50/4/1 
f  69/1/1  70/2/1  53/3/1  52/4/1 
f  70/2/1  71/10/1  54/13/1  53/3/1 
f  71/13/1  72/14/1  55/15/1  54/16/1 
f  72/18/1  73/4/1  56/19/1  55/20/1 
f  73/4/1  74/3/1  57/21/1  56/19/1 
f  74/4/1  75/3/1  58/21/1  57/19/1 
f  75/4/1  76/3/1  59/21/1  58/19/1 
f  76/4/1  77/3/1  60/21/1  59/19/1 
f  77/4/1  78/3/1  61/21/1  60/19/1 
f  78/4/1  79/3/1  62/21/1  61/19/1 
f  79/4/1  80/3/1  63/21/1  62/19/1 
f  80/4/1  81/3/1  64/21/1  63/19/1 
f  81/3/1  82/13/1  65/16/1  64/21/1 
f  82/13/1  83/14/1  66/15/1  65/16/1 
f  83/17/1  84/1/1  67/4/1  66/18/1 
f  84/1/1  85/2/1  68/3/1  67/4/1 
f  86/1/1  87/2/1  70/3/1  69/4/1 
f  87/2/1  88/10/1  71/13/1  70/3/1 
f  88/13/1  89/14/1  72/15/1  71/16/1 
f  89/17/1  90/1/1  73/4/1  72/18/1 
f  90/1/1  91/2/1  74/3/1  73/4/1 
f  91/1/1  92/2/1  75/3/1  74/4/1 
f  92/1/1  93/2/1  76/3/1  75/4/1 
f  93/1/1  94/2/1  77/3/1  76/4/1 
f  94/1/1  95/2/1  78/3/1  77/4/1 
f  95/1/1  96/2/1  79/3/1  78/4/1 
f  96/1/1  97/2/1  80/3/1  79/4/1 
f  97/1/1  98/2/1  81/3/1  80/4/1 
f  98/2/1  99/10/1  82/13/1  81/3/1 
f  99/13/1  100/14/1  83/15/1  82/16/1 
f  100/17/1  101/1/1  84/4/1  83/18/1 
f  101/1/1  102/2/1  85/3/1  84/4/1 
f  103/1/1  104/2/1  87/3/1  86/4/1 
f  104/2/1  105/10/1  88/13/1  87/3/1 
f  105/13/1  106/14/1  89/15/1  88/16/1 
f  106/17/1  107/1/1  90/4/1  89/18/1 
f  107/1/1  108/2/1  91/3/1  90/4/1 
f  108/5/1  109/6/1  92/7/1  91/8/1 
f  109/11/1  110/5/1  93/8/1  92/12/1 
f  110/1/1  111/2/1  94/3/1  93/4/1 
f  111/1/1  112/2/1  95/3/1  94/4/1 
f  112/1/1  113/2/1  96/3/1  95/4/1 
f  113/1/1  114/2/1  97/3/1  96/4/1 
f  114/1/1  115/2/1  98/3/1  97/4/1 
f  115/2/1  116/10/1  99/13/1  98/3/1 
f  116/13/1  117/14/1  100/15/1  99/16/1 
f  117/17/1  118/1/1  101/4/1  100/18/1 
f  118/1/1  119/2/1  102/3/1  101/4/1 
f  120/1/1  121/2/1  104/3/1  103/4/1 
f  121/2/1  122/10/1  105/13/1  104/3/1 
f  122/13/1  123/14/1  106/15/1  105/16/1 
f  123/17/1  124/1/1  107/4/1  106/18/1 
f  124/1/1  125/2/1  108/3/1  107/4/1 
f  125/12/1  126/8/1  109/1/1  108/17/1 
f  126/10/1  127/22/1  110/14/1  109/13/1 
f  127/1/1  128/2/1  111/3/1  110/4/1 
f  128/1/1  129/2/1  112/3/1  111/4/1 
f  129/1/1  130/2/1  113/3/1  112/4/1 
f  130/1/1  131/2/1  114/3/1  113/4/1 
f  131/1/1  132/2/1  115/3/1  114/4/1 
f  132/2/1  133/10/1  116/13/1  115/3/1 
f  133/13/1  134/14/1  117/15/1  116/16/1 
f  134/17/1  135/1/1  118/4/1  117/18/1 
f  135/1/1  136/2/1  119/3/1  118/4/1 
f  137/1/1  138/2/1  121/3/1  120/4/1 
f  138/2/1  139/10/1  122/13/1  121/3/1 
f  139/13/1  140/14/1  123/15/1  122/16/1 
f  140/17/1  141/1/1  124/4/1  123/18/1 
f  141/1/1  142/2/1  125/3/1  124/4/1 
f  142/1/1  143/2/1  126/3/1  125/4/1 
f  143/1/1  144/2/1  127/3/1  126/4/1 
f  144/1/1  145/2/1  128/3/1  127/4/1 
f  145/1/1  146/2/1  129/3/1  128/4/1 
f  146/5/1  147/6/1  130/7/1  129/8/1 
f  147/11/1  148/5/1  131/8/1  130/12/1 
f  148/1/1  149/2/1  132/3/1  131/4/1 
f  149/2/1  150/10/1  133/13/1  132/3/1 
f  150/13/1  151/14/1  134/15/1  133/16/1 
f  151/17/1  152/1/1  135/4/1  134/18/1 
f  152/1/1  153/2/1  136/3/1  135/4/1 
f  154/1/1  155/2/1  138/3/1  137/4/1 
f  155/2/1  156/10/1  139/13/1  138/3/1 
f  156/13/1  157/14/1  140/15/1  139/16/1 
f  157/17/1  158/1/1  141/4/1  140/18/1 
f  158/1/1  159/2/1  142/3/1  141/4/1 
f  159/1/1  160/2/1  143/3/1  142/4/1 
f  160/1/1  161/2/1  144/3/1  143/4/1 
f  161/1/1  162/2/1  145/3/1  144/4/1 
f  162/1/1  163/2/1  146/3/1  145/4/1 
f  163/12/1  164/8/1  147/1/1  146/17/1 
f  164/10/1  165/22/1  148/14/1  147/13/1 
f  165/1/1  166/2/1  149/3/1  148/4/1 
f  166/2/1  167/10/1  150/13/1  149/3/1 
f  167/13/1  168/14/1  151/15/1  150/16/1 
f  168/17/1  169/1/1  152/4/1  151/18/1 
f  169/1/1  170/2/1  153/3/1  152/4/1 
f  171/1/1  172/2/1  155/3/1  154/4/1 
f  172/2/1  173/10/1  156/13/1  155/3/1 
f  173/13/1  174/14/1  157/15/1  156/16/1 
f  174/17/1  175/1/1  158/4/1  157/18/1 
f  175/1/1  176/2/1  159/3/1  158/4/1 
f  176/1/1  177/2/1  160/3/1  159/4/1 
f  177/1/1  178/2/1  161/3/1  160/4/1 
f  178/1/1  179/2/1  162/3/1  161/4/1 
f  179/1/1  180/2/1  163/3/1  162/4/1 
f  180/1/1  181/2/1  164/3/1  163/4/1 
f  181/1/1  182/2/1  165/3/1  164/4/1 
f  182/1/1  183/2/1  166/3/1  165/4/1 
f  183/2/1  184/10/1  167/13/1  166/3/1 
f  184/13/1  185/14/1  168/15/1  167/16/1 
f  185/17/1  186/1/1  169/4/1  168/18/1 
f  186/1/1  187/2/1  170/3/1  169/4/1 
f  188/1/1  189/2/1  172/3/1  171/4/1 
f  189/2/1  190/10/1  173/13/1  172/3/1 
f  190/13/1  191/14/1  174/15/1  173/16/1 
f  191/8/1  192/7/1  175/2/1  174/1/1 
f  192/7/1  193/9/1  176/10/1  175/2/1 
f  193/7/1  194/9/1  177/10/1  176/2/1 
f  194/7/1  195/9/1  178/10/1  177/2/1 
f  195/7/1  196/9/1  179/10/1  178/2/1 
f  196/7/1  197/9/1  180/10/1  179/2/1 
f  197/7/1  198/9/1  181/10/1  180/2/1 
f  198/7/1  199/9/1  182/10/1  181/2/1 
f  199/7/1  200/9/1  183/10/1  182/2/1 
f  200/9/1  201/23/1  184/22/1  183/10/1 
f  201/13/1  202/14/1  185/15/1  184/16/1 
f  202/17/1  203/1/1  186/4/1  185/18/1 
f  203/1/1  204/2/1  187/3/1  186/4/1 
f  205/1/1  206/2/1  189/3/1  188/4/1 
f  206/2/1  207/10/1  190/13/1  189/3/1 
f  207/13/1  208/14/1  191/15/1  190/16/1 
f  208/13/1  209/14/1  192/15/1  191/16/1 
f  209/13/1  210/14/1  193/15/1  192/16/1 
f  210/13/1  211/14/1  194/15/1  193/16/1 
f  211/13/1  212/14/1  195/15/1  194/16/1 
f  212/13/1  213/14/1  196/15/1  195/16/1 
f  213/13/1  214/14/1  197/15/1  196/16/1 
f  214/13/1  215/14/1  198/15/1  197/16/1 
f  215/13/1  216/14/1  199/15/1  198/16/1 
f  216/13/1  217/14/1  200/15/1  199/16/1 
f  217/13/1  218/14/1  201/15/1  200/16/1 
f  218/13/1  219/14/1  202/15/1  201/16/1 
f  219/17/1  220/1/1  203/4/1  202/18/1 
f  220/1/1  221/2/1  204/3/1  203/4/1 
f  222/1/1  223/2/1  206/3/1  205/4/1 
f  223/12/1  224/8/1  207/1/1  206/17/1 
f  224/4/1  225/3/1  208/21/1  207/19/1 
f  225/4/1  226/3/1  209/21/1  208/19/1 
f  226/4/1  227/3/1  210/21/1  209/19/1 
f  227/4/1  228/3/1  211/21/1  210/19/1 
f  228/4/1  229/3/1  212/21/1  211/19/1 
f  229/4/1  230/3/1  213/21/1  212/19/1 
f  230/4/1  231/3/1  214/21/1  213/19/1 
f  231/4/1  232/3/1  215/21/1  214/19/1 
f  232/4/1  233/3/1  216/21/1  215/19/1 
f  233/4/1  234/3/1  217/21/1  216/19/1 
f  234/4/1  235/3/1  218/21/1  217/19/1 
f  235/4/1  236/3/1  219/21/1  218/19/1 
f  236/10/1  237/22/1  220/14/1  219/13/1 
f  237/1/1  238/2/1  221/3/1  220/4/1 
f  239/1/1  240/2/1  223/3/1  222/4/1 
f  240/1/1  241/2/1  224/3/1  223/4/1 
f  241/1/1  242/2/1  225/3/1  224/4/1 
f  242/1/1  243/2/1  226/3/1  225/4/1 
f  243/1/1  244/2/1  227/3/1  226/4/1 
f  244/1/1  245/2/1  228/3/1  227/4/1 
f  245/1/1  246/2/1  229/3/1  228/4/1 
f  246/1/1  247/2/1  230/3/1  229/4/1 
f  247/1/1  248/2/1  231/3/1  230/4/1 
f  248/1/1  249/2/1  232/3/1  231/4/1 
f  249/1/1  250/2/1  233/3/1  232/4/1 
f  250/1/1  251/2/1  234/3/1  233/4/1 
f  251/1/1  252/2/1  235/3/1  234/4/1 
f  252/1/1  253/2/1  236/3/1  235/4/1 
f  253/1/1  254/2/1  237/3/1  236/4/1 
f  254/1/1  255/2/1  238/3/1  237/4/1 
